# xmcd CD database file
#
# Track frame offsets:
#	150
#	17677
#	34208
#	59491
#	81955
#	102854
#	118494
#	138265
#	158670
#	180192
#	197803
#	212613
#	240634
#	262198
#
# Disc length: 3763 seconds
#
# Revision: 0
# Processed by: cddbd v1.5.2PL0 Copyright (c) Steve Scherf et al.
# Submitted via: CDex 1.51
#
DISCID=c20eb10e
DTITLE=Charly Augschöll - All the Best Hotline
DYEAR=1900
DGENRE=Jazz
TTITLE0=Take That Thing
TTITLE1=Storm Rider
TTITLE2=Someone Like You
TTITLE3=Make it Shine
TTITLE4=Dumbogo
TTITLE5=Easy
TTITLE6=Soulwalk
TTITLE7=I Wanna Get Down So Deep
TTITLE8=Balade for Rosa
TTITLE9=Easy Living
TTITLE10=Let's Do It Funky
TTITLE11=Smooth and Mellow
TTITLE12=Miss Runaway
TTITLE13=Die lustigen Schnapsbrenner
EXTD=
EXTT0=
EXTT1=
EXTT2=
EXTT3=
EXTT4=
EXTT5=
EXTT6=
EXTT7=
EXTT8=
EXTT9=
EXTT10=
EXTT11=
EXTT12=
EXTT13=
PLAYORDER=
